PathFileType	4	(X/Y/Z)	Kaydara																																																																																																																									
DataRate	CameraRate	NumFrames	NumMarkers	Units	OrigDataRate	OrigDataStartFrame	OrigNumFrames																																																																																																																					
30	30	4	41	mm	30	32	125																																																																																																																					
Frame#	Time	EMLA_LFHD			EMLA_RFHD			EMLA_LBHD			EMLA_RBHD			EMLA_LFTShould			EMLA_RFTShould			EMLA_LRRShould			EMLA_RRRShould			EMLA_T10			EMLA_STRN			EMLA_TRUN			EMLA_LSHO			EMLA_LUPA			EMLA_LELB			EMLA_LFRM			EMLA_LWRA			EMLA_LWRB			EMLA_LFIN			EMLA_RSHO			EMLA_RUPA			EMLA_RELB			EMLA_RFRM			EMLA_RWRA			EMLA_RWRB			EMLA_RFIN			EMLA_LFWT			EMLA_RFWT			EMLA_LBWT			EMLA_RBWT			EMLA_LTHI			EMLA_LKNE			EMLA_LSHN			EMLA_LANK			EMLA_LHEE			EMLA_LTOE			EMLA_RTHI			EMLA_RKNE			EMLA_RSHN			EMLA_RANK			EMLA_RHEE			EMLA_RTOE		
		X1	Y1	Z1	X2	Y2	Z2	X3	Y3	Z3	X4	Y4	Z4	X5	Y5	Z5	X6	Y6	Z6	X7	Y7	Z7	X8	Y8	Z8	X9	Y9	Z9	X10	Y10	Z10	X11	Y11	Z11	X12	Y12	Z12	X13	Y13	Z13	X14	Y14	Z14	X15	Y15	Z15	X16	Y16	Z16	X17	Y17	Z17	X18	Y18	Z18	X19	Y19	Z19	X20	Y20	Z20	X21	Y21	Z21	X22	Y22	Z22	X23	Y23	Z23	X24	Y24	Z24	X25	Y25	Z25	X26	Y26	Z26	X27	Y27	Z27	X28	Y28	Z28	X29	Y29	Z29	X30	Y30	Z30	X31	Y31	Z31	X32	Y32	Z32	X33	Y33	Z33	X34	Y34	Z34	X35	Y35	Z35	X36	Y36	Z36	X37	Y37	Z37	X38	Y38	Z38	X39	Y39	Z39	X40	Y40	Z40	X41	Y41	Z41
																																																																																																																												
32	1.043	269.57754	1634.44489	-1929.5459	100.0889	1633.50967	-1936.72363	289.63001	1625.04272	-2079.8558	95.02063	1627.06528	-2089.64355	268.50529	1401.71097	-1983.33786	119.73205	1395.15518	-1987.46429	265.13023	1447.50031	-2134.76425	108.54998	1439.99252	-2136.61453	198.47578	1271.47247	-2178.1897	193.76701	1335.28534	-1946.69571	187.75179	1232.27844	-1925.04837	396.54739	1421.92413	-2038.46649	451.18763	1236.34026	-2043.26385	465.95844	1094.8407	-2034.71863	465.11925	959.91043	-2018.55499	379.60506	822.07039	-1933.15491	438.96709	798.86795	-1988.70163	430.58369	770.58563	-1924.69147	-1.62152	1424.59213	-2055.83786	-61.69043	1230.75531	-2043.55865	-81.74459	1087.61963	-2049.16611	-85.50881	985.73555	-2041.67267	-21.29851	838.60519	-1920.9938	-68.91371	810.96321	-1985.65659	-81.57081	789.65836	-1925.1944	289.64531	991.76254	-1940.09552	54.44759	982.60742	-1966.16257	278.30725	1013.71048	-2140.74387	102.75614	1016.35544	-2144.37836	318.84312	728.08632	-2129.52362	321.65745	522.47528	-2094.57779	296.36848	340.38776	-2089.59137	298.60813	165.15284	-2165.42892	232.03552	86.14712	-2224.87717	270.25921	74.18277	-2027.4617	65.66751	712.77924	-2156.79123	29.33312	512.2102	-2096.05927	70.85445	289.61296	-2090.12558	32.62107	128.97801	-2170.38651	87.78441	78.33807	-2224.27277	55.77274	71.99431	-2022.48413
33	1.077	269.62126	1633.71063	-1928.65921	100.08831	1632.94647	-1935.44693	289.23531	1625.24551	-2079.02756	94.74213	1627.42172	-2088.34808	268.36834	1401.47812	-1982.54562	120.10469	1395.08255	-1986.04111	264.71914	1447.48566	-2134.09302	108.09146	1439.95132	-2135.41458	197.92917	1271.42868	-2177.31964	193.86011	1334.99557	-1945.84579	188.05811	1232.18056	-1924.09866	396.43719	1421.81824	-2038.15231	451.03786	1236.25191	-2043.3287	465.87128	1094.75708	-2034.97208	465.27863	959.86977	-2019.12018	380.32383	821.57738	-1933.66211	439.66885	798.69759	-1989.52072	431.61537	770.21454	-1925.46722	-1.8312	1424.30054	-2054.37515	-61.56729	1230.20821	-2041.93298	-81.57603	1087.23404	-2047.88208	-85.37001	985.39902	-2040.64987	-20.79126	837.65327	-1920.6134	-68.69698	810.47615	-1985.17456	-81.12962	788.89801	-1924.7525	289.56865	991.47675	-1939.40308	54.3574	982.38838	-1965.10452	277.95513	1013.72566	-2139.96353	102.40775	1016.34941	-2143.31436	318.64594	728.07129	-2128.96622	321.54896	522.5444	-2094.46487	296.2392	340.49026	-2089.51294	298.58116	165.30224	-2165.35172	231.99972	86.28945	-2224.81674	270.26438	74.18221	-2027.43134	65.41089	712.8437	-2156.13892	29.29418	512.17922	-2095.81924	70.87509	289.63024	-2090.03662	32.69428	129.02435	-2170.33508	87.83974	78.43321	-2224.25171	55.7834	71.98354	-2022.45682
34	1.11	269.66778	1633.0513	-1927.69455	100.11026	1632.26089	-1934.22775	289.01556	1625.56839	-2078.12531	94.49437	1627.84332	-2087.12234	268.30463	1401.39038	-1981.94733	119.96691	1394.91776	-1985.3006	264.33832	1447.46735	-2133.46039	107.7066	1439.88998	-2134.37012	197.59615	1271.42288	-2176.43753	193.86477	1334.73251	-1944.93301	188.25422	1232.14378	-1923.21121	396.28517	1421.78116	-2037.76779	450.70255	1236.20483	-2043.29712	465.57655	1094.70238	-2035.1825	465.22606	959.9231	-2019.60449	380.76408	821.23764	-1934.09973	439.97478	798.5833	-1990.16144	432.33833	770.01312	-1926.13419	-2.09598	1424.03046	-2053.00735	-61.56957	1229.9498	-2040.77026	-81.30347	1086.8589	-2046.64795	-85.04446	985.02991	-2039.7644	-20.12686	836.64108	-1920.60944	-68.2406	809.89883	-1985.09689	-80.41829	788.0481	-1924.72656	289.80297	990.87273	-1938.57224	54.16583	981.99745	-1963.75946	277.63012	1013.85941	-2138.96286	102.07154	1016.44302	-2142.08832	318.55072	728.25104	-2128.7796	321.40453	522.59224	-2094.67209	296.16339	340.62599	-2089.73587	298.56054	165.36144	-2165.44968	231.98788	86.38052	-2224.77783	270.29812	74.1697	-2027.40005	65.16706	712.97836	-2155.46051	29.30628	512.15401	-2095.70526	70.88107	289.76238	-2089.99954	32.72797	129.17094	-2170.22736	87.93528	78.56661	-2224.1597	55.77931	71.94411	-2022.3851
35	1.143	269.55118	1632.66678	-1926.61057	100.09104	1631.81686	-1932.88757	288.77144	1625.84396	-2077.12845	94.26982	1628.03543	-2085.92743	268.26115	1401.42715	-1981.4267	119.74897	1394.80209	-1984.67972	264.05075	1447.35855	-2132.91458	107.45344	1439.72809	-2133.50159	197.2805	1271.27396	-2175.58304	193.76944	1334.73114	-1944.19556	188.3943	1232.21329	-1922.45789	396.21925	1421.80099	-2037.50854	450.49831	1236.15326	-2043.28232	465.38361	1094.75334	-2035.39459	465.0053	959.93378	-2019.96338	380.89306	821.24367	-1934.23981	439.86481	798.52959	-1990.60638	432.36183	769.82582	-1926.49429	-2.24058	1423.89282	-2051.99051	-61.43649	1229.69734	-2039.75372	-80.82104	1086.50772	-2045.62805	-84.49671	984.77592	-2039.14383	-19.41301	835.86586	-1920.73029	-67.5947	809.35349	-1985.2774	-79.61549	787.20032	-1925.04242	289.89597	990.55008	-1937.81723	54.46069	981.87134	-1962.36649	277.27327	1014.08264	-2138.05008	101.68608	1016.71242	-2140.77225	318.27106	728.33099	-2128.68362	321.27342	522.62383	-2095.02548	296.10626	340.69389	-2090.06561	298.51215	165.39396	-2165.63309	231.92141	86.36087	-2224.87305	270.36814	74.19169	-2027.45361	64.91883	713.3149	-2154.98138	29.34067	512.24464	-2095.91232	70.92003	289.9538	-2090.18524	32.7901	129.29512	-2170.25345	88.04118	78.72157	-2224.06479	55.75912	71.91827	-2022.31232
